<?xml version="1.0" encoding="utf-8"?>
<!-- Generator: Adobe Illustrator 21.0.2, SVG Export Plug-In . SVG Version: 6.00 Build 0)  -->
<svg version="1.1" id="Layer_1" xmlns="http://www.w3.org/2000/svg" xmlns:xlink="http://www.w3.org/1999/xlink" x="0px" y="0px"
	 viewBox="0 0 200 200" style="enable-background:new 0 0 200 200;" xml:space="preserve">
<style type="text/css">
	.st0{fill:#0071CE;}
</style>
<path class="st0" d="M64.3,62.5h4.9c1.3,0,2.2-0.3,2.8-0.9c0.6-0.6,0.9-1.4,1.1-2.3c0.2-1,0.2-2,0.2-3.2c0-1.1,0-2.2-0.2-3.2
	c-0.2-1-0.5-1.8-1.1-2.3c-0.6-0.6-1.5-0.9-2.8-0.9h-4.9V62.5L64.3,62.5z M74.2,56c0,2.4,0.3,4.1,1,5.1c0.7,1,1.9,1.6,3.6,1.5
	c1.7,0,2.9-0.5,3.6-1.5c0.7-1,1-2.8,1-5.1c0-2.4-0.3-4.1-1-5.1c-0.7-1-1.9-1.6-3.6-1.5c-1.7,0-2.9,0.5-3.6,1.5
	C74.5,52,74.2,53.7,74.2,56L74.2,56z M89.8,54.2H93v-0.8c0-1.3-0.3-2.2-0.9-3c-0.6-0.7-1.7-1.1-3.2-1.1c-1.7,0-2.9,0.5-3.6,1.5
	c-0.7,1-1,2.8-1,5.2c0,1.6,0.1,2.9,0.4,3.9c0.2,1,0.7,1.7,1.4,2.2c0.7,0.5,1.6,0.7,2.9,0.7c0.7,0,1.4-0.1,2.1-0.4
	c0.6-0.2,1.2-0.7,1.6-1.3c0.4-0.6,0.6-1.6,0.6-2.8v-1h-3.2c0,1.2-0.1,2-0.2,2.5c-0.1,0.5-0.4,0.7-0.8,0.7c-0.3,0-0.6-0.1-0.8-0.4
	c-0.2-0.3-0.3-0.7-0.3-1.4c0-0.6-0.1-1.5-0.1-2.7c0-1.1,0-2,0.1-2.7c0-0.6,0.2-1.1,0.3-1.4c0.2-0.3,0.4-0.4,0.8-0.4
	c0.3,0,0.6,0.1,0.7,0.4c0.1,0.3,0.2,0.8,0.2,1.5V54.2L89.8,54.2z M110.8,42.1v31.5h31.5v83.7H58.6V42.1H110.8L110.8,42.1z
	 M64.3,89.2v62.4h72.3V89.2L64.3,89.2L64.3,89.2z M67.6,52h0.7c0.4,0,0.7,0.1,1,0.3c0.2,0.2,0.3,0.6,0.4,1.2
	c0.1,0.6,0.1,1.4,0.1,2.6c0,1.1,0,2-0.1,2.6c-0.1,0.6-0.2,1-0.4,1.2c-0.2,0.2-0.5,0.3-1,0.3h-0.7V52L67.6,52z M77.7,56
	c0-1.1,0-2,0.1-2.7c0-0.6,0.2-1.1,0.3-1.4c0.2-0.3,0.4-0.4,0.8-0.4c0.3,0,0.6,0.1,0.8,0.4c0.2,0.3,0.3,0.7,0.3,1.4
	c0,0.6,0.1,1.5,0.1,2.7c0,1.1,0,2-0.1,2.7c0,0.6-0.2,1.1-0.3,1.4c-0.2,0.3-0.4,0.4-0.8,0.4c-0.3,0-0.6-0.1-0.8-0.4
	c-0.2-0.3-0.3-0.7-0.3-1.4C77.7,58.1,77.7,57.2,77.7,56L77.7,56z M129.5,123.1l-4.7,19h-6.1l-2.2-11l-2.2,11h-6.1l-4.7-19h6
	l2.1,11.8l2.3-11.8h5.2l2.3,11.8l2.2-11.8H129.5L129.5,123.1z M71.3,123.1l27.9,0v2.7H71.3V123.1L71.3,123.1z M71.3,115h58.2v2.7
	H71.3V115L71.3,115z M71.3,106.8h58.2v2.7H71.3V106.8L71.3,106.8z M71.3,98.6h58.2v2.7H71.3V98.6L71.3,98.6z M71.3,131.3h27.9v2.7
	H71.3V131.3L71.3,131.3z M71.3,139.5h27.9v2.7H71.3V139.5L71.3,139.5z M114.4,42.1l27.8,27.8h-27.8V42.1L114.4,42.1z"/>
</svg>
