<?xml version="1.0" encoding="utf-8"?>
<!-- Generator: Adobe Illustrator 21.0.2, SVG Export Plug-In . SVG Version: 6.00 Build 0)  -->
<svg version="1.1" id="Layer_1" xmlns="http://www.w3.org/2000/svg" xmlns:xlink="http://www.w3.org/1999/xlink" x="0px" y="0px"
	 viewBox="0 0 200 200" style="enable-background:new 0 0 200 200;" xml:space="preserve">
<style type="text/css">
	.st0{fill:#95D600;}
</style>
<path class="st0" d="M69.1,49.4v9.3c0,0.6-0.1,1-0.2,1.2c-0.2,0.2-0.4,0.3-0.6,0.3c-0.3,0-0.5-0.1-0.6-0.3c-0.2-0.2-0.2-0.6-0.2-1.2
	v-0.6h-3v0.3c0,1.3,0.3,2.4,0.9,3.1c0.6,0.7,1.6,1.1,3,1.1c1.4,0,2.4-0.3,3.1-1c0.7-0.7,1.1-1.8,1.1-3.3v-8.8H69.1L69.1,49.4z
	 M73.6,62.3H77v-4.9h1.2c1.4,0,2.4-0.3,3.1-1c0.7-0.7,1.1-1.7,1.1-3c0-1.1-0.3-2.1-0.9-2.8c-0.6-0.7-1.5-1.1-2.8-1.1h-5V62.3
	L73.6,62.3z M87.7,57.6h1.2c0,1.1-0.1,1.8-0.3,2.2c-0.2,0.4-0.5,0.5-0.8,0.5c-0.3,0-0.6-0.1-0.8-0.4c-0.2-0.3-0.3-0.7-0.3-1.4
	c0-0.6-0.1-1.5-0.1-2.7c0-1.1,0-2,0.1-2.7c0.1-0.6,0.2-1.1,0.3-1.4c0.2-0.3,0.4-0.4,0.8-0.4c0.2,0,0.4,0,0.5,0.1
	c0.1,0.1,0.2,0.2,0.3,0.4c0.1,0.2,0.1,0.4,0.1,0.6c0,0.3,0,0.5,0,0.9h3.2c0-1.5-0.4-2.7-1.1-3.3c-0.7-0.7-1.7-1-2.9-1
	c-1.3,0-2.3,0.3-3,0.8c-0.7,0.5-1.2,1.3-1.4,2.3c-0.3,1-0.4,2.2-0.4,3.6c0,1.4,0.1,2.6,0.2,3.6c0.2,1,0.5,1.7,1,2.3
	c0.5,0.5,1.4,0.8,2.5,0.8c0.6,0,1.1-0.1,1.6-0.3c0.5-0.2,0.9-0.6,1.1-1.1l0.1,1.1h2.3v-7h-4.3V57.6L87.7,57.6z M110.8,41.9v31.5
	h31.5v83.7H58.6V41.9H110.8L110.8,41.9z M64.3,89v62.4h72.3V89H64.3L64.3,89z M77,51.8h0.6c0.4,0,0.7,0.1,1,0.4
	c0.2,0.3,0.3,0.7,0.3,1.2c0,0.5-0.1,0.9-0.3,1.2c-0.2,0.3-0.5,0.4-1,0.4H77V51.8L77,51.8z M128.7,100.6v39.3H72.3v-39.3H128.7
	L128.7,100.6z M126.5,102.7h-52v34.9h52V102.7L126.5,102.7z M77.6,111.8c0-2.2,1.8-4,4-4c2.2,0,4,1.8,4,4c0,2.2-1.8,4-4,4
	C79.4,115.8,77.6,114,77.6,111.8L77.6,111.8z M106.7,119l3.9-7.1l12.8,23.1H77.6l12.8-23.1l3.9,7.1l6.2-11.2L106.7,119L106.7,119z
	 M114.5,41.9l27.8,27.8h-27.8V41.9L114.5,41.9z"/>
</svg>
