<?xml version="1.0" encoding="utf-8"?>
<!-- Generator: Adobe Illustrator 21.0.2, SVG Export Plug-In . SVG Version: 6.00 Build 0)  -->
<svg version="1.1" id="Layer_1" xmlns="http://www.w3.org/2000/svg" xmlns:xlink="http://www.w3.org/1999/xlink" x="0px" y="0px"
	 viewBox="0 0 200 200" style="enable-background:new 0 0 200 200;" xml:space="preserve">
<style type="text/css">
	.st0{fill:#EB0029;}
</style>
<path class="st0" d="M64.3,62.3h3.3v-4.9h1.2c1.4,0,2.4-0.3,3.1-1c0.7-0.7,1.1-1.7,1.1-3c0-1.1-0.3-2.1-0.9-2.8
	c-0.6-0.7-1.5-1.1-2.8-1.1h-5V62.3L64.3,62.3z M74.1,62.3h4.9c1.3,0,2.2-0.3,2.8-0.9c0.6-0.6,0.9-1.4,1.1-2.3c0.2-1,0.2-2,0.2-3.2
	c0-1.1,0-2.2-0.2-3.2c-0.2-1-0.5-1.8-1.1-2.3c-0.6-0.6-1.5-0.9-2.8-0.9h-4.9V62.3L74.1,62.3z M84.4,62.3h3.3V57h4v-2.6h-4v-2.2H92
	v-2.7h-7.6V62.3L84.4,62.3z M64.3,89v62.4h72.3V89H64.3L64.3,89z M110.8,41.9v31.5h31.5v83.7H58.6V41.9H110.8L110.8,41.9z
	 M67.6,51.8h0.6c0.4,0,0.7,0.1,1,0.4c0.2,0.3,0.3,0.7,0.3,1.2c0,0.5-0.1,0.9-0.3,1.2c-0.2,0.3-0.5,0.4-1,0.4h-0.6V51.8L67.6,51.8z
	 M77.4,51.8h0.7c0.4,0,0.7,0.1,1,0.3c0.2,0.2,0.3,0.6,0.4,1.2c0.1,0.6,0.1,1.4,0.1,2.6c0,1.1,0,2-0.1,2.6c-0.1,0.6-0.2,1-0.4,1.2
	c-0.2,0.2-0.5,0.3-1,0.3h-0.7V51.8L77.4,51.8z M103.8,98.4h25.7v2.7h-25.7V98.4L103.8,98.4z M71.3,123H97v2.7H71.3V123L71.3,123z
	 M71.3,114.8H97v2.7H71.3V114.8L71.3,114.8z M71.3,131.1H97v2.7H71.3V131.1L71.3,131.1z M71.3,139.3l25.7,0v2.7H71.3V139.3
	L71.3,139.3z M129.5,123v19h-25.7v-19H129.5L129.5,123z M71.3,106.6H97v2.7H71.3V106.6L71.3,106.6z M71.3,98.4H97v2.7H71.3V98.4
	L71.3,98.4z M103.8,114.8h25.7v2.7h-25.7V114.8L103.8,114.8z M103.8,106.6h25.7v2.7h-25.7V106.6L103.8,106.6z M114.4,41.9l27.8,27.8
	h-27.8V41.9L114.4,41.9z"/>
</svg>
