<?xml version="1.0" encoding="utf-8"?>
<!-- Generator: Adobe Illustrator 21.0.2, SVG Export Plug-In . SVG Version: 6.00 Build 0)  -->
<svg version="1.1" id="Layer_1" xmlns="http://www.w3.org/2000/svg" xmlns:xlink="http://www.w3.org/1999/xlink" x="0px" y="0px"
	 viewBox="0 0 200 200" style="enable-background:new 0 0 200 200;" xml:space="preserve">
<style type="text/css">
	.st0{fill:#00AEEF;}
</style>
<path class="st0" d="M115.1,135h-5.8v-5.8h5.8V135h5.8v5.8h-5.8V135L115.1,135z M115.1,105.8v5.8h-5.8v-5.8H115.1v-5.8h5.8v5.8
	H115.1L115.1,105.8z M85.9,105.8h5.8v5.8h-5.8V105.8H80v-5.8h5.8V105.8L85.9,105.8z M91.7,129.2v5.8h-5.8v5.8H80V135h5.8v-5.8H91.7
	L91.7,129.2z M64.3,62.5h3.3v-4.9h1.2c1.4,0,2.4-0.3,3.1-1c0.7-0.7,1.1-1.7,1.1-3c0-1.1-0.3-2.1-0.9-2.8c-0.6-0.7-1.5-1.1-2.8-1.1
	h-5V62.5L64.3,62.5z M74.1,62.5h3.1l0-7.9l2.2,7.9h3.7V49.6h-3.1l0,7.9l-2.2-7.9h-3.7V62.5L74.1,62.5z M89.1,57.8h1.2
	c0,1.1-0.1,1.8-0.3,2.2c-0.2,0.4-0.5,0.5-0.8,0.5c-0.3,0-0.6-0.1-0.8-0.4c-0.2-0.3-0.3-0.7-0.3-1.4c0-0.6-0.1-1.5-0.1-2.7
	c0-1.1,0-2,0.1-2.7c0.1-0.6,0.2-1.1,0.3-1.4c0.2-0.3,0.4-0.4,0.8-0.4c0.2,0,0.4,0,0.5,0.1c0.1,0.1,0.2,0.2,0.3,0.4
	c0.1,0.2,0.1,0.4,0.1,0.6c0,0.3,0,0.5,0,0.9h3.2c0-1.5-0.4-2.7-1.1-3.3c-0.7-0.7-1.7-1-2.9-1c-1.3,0-2.3,0.3-3,0.8
	c-0.7,0.5-1.2,1.3-1.4,2.3c-0.3,1-0.4,2.2-0.4,3.6c0,1.4,0.1,2.6,0.2,3.6c0.2,1,0.5,1.7,1,2.3c0.5,0.5,1.4,0.8,2.5,0.8
	c0.6,0,1.1-0.1,1.6-0.3c0.5-0.2,0.9-0.6,1.2-1.1l0.1,1.1h2.3v-7h-4.3V57.8L89.1,57.8z M110.8,42.1v31.5h31.5v83.7H58.6V42.1H110.8
	L110.8,42.1z M64.3,89.2v62.4h72.3V89.2L64.3,89.2L64.3,89.2z M67.7,52h0.6c0.4,0,0.7,0.1,1,0.4c0.2,0.3,0.3,0.7,0.3,1.2
	c0,0.5-0.1,0.9-0.3,1.2c-0.2,0.3-0.5,0.4-1,0.4h-0.6V52L67.7,52z M97.5,105.8h-5.8v5.8h5.8V105.8L97.5,105.8z M103.4,117.5v-5.8
	h-5.8v5.8H103.4L103.4,117.5z M109.2,123.3v-5.8h-5.8v5.8H109.2L109.2,123.3z M109.2,111.6v-5.8h-5.8v5.8H109.2L109.2,111.6z
	 M115.1,111.6h-5.8v5.8h5.8V111.6L115.1,111.6z M85.9,117.5h5.8v-5.8h-5.8V117.5L85.9,117.5z M91.7,123.3h5.8v-5.8h-5.8V123.3
	L91.7,123.3z M115.1,129.2v-5.8h-5.8v5.8H115.1L115.1,129.2z M97.5,129.2h5.8v-5.8h-5.8V129.2L97.5,129.2z M85.9,129.2h5.8v-5.8
	h-5.8V129.2L85.9,129.2z M103.4,135h5.8v-5.8h-5.8V135L103.4,135z M97.5,135v5.8h-5.8V135h-5.8v5.8H80V135h5.8v-5.8H80v-5.8h5.8
	v-5.8H80v-5.8h5.8v-5.8H80v-5.8h5.8v5.8h5.8v-5.8h5.8v5.8h5.8v-5.8h5.8v5.8h5.8v-5.8h5.8v5.8h-5.8v5.8h5.8v5.8h-5.8v5.8h5.8v5.8
	h-5.8v5.8h5.8v5.8h-5.8V135h-5.8v5.8h-5.8V135H97.5L97.5,135z M91.7,135h5.8v-5.8h-5.8V135L91.7,135z M114.5,42.1l27.8,27.8h-27.8
	V42.1L114.5,42.1z"/>
</svg>
