<?xml version="1.0" encoding="utf-8"?>
<!-- Generator: Adobe Illustrator 21.0.2, SVG Export Plug-In . SVG Version: 6.00 Build 0)  -->
<svg version="1.1" id="Layer_1" xmlns="http://www.w3.org/2000/svg" xmlns:xlink="http://www.w3.org/1999/xlink" x="0px" y="0px"
	 viewBox="0 0 200 200" style="enable-background:new 0 0 200 200;" xml:space="preserve">
<style type="text/css">
	.st0{fill:#F7901E;}
</style>
<path class="st0" d="M64.3,62.7h3.3v-4.9h1.2c1.4,0,2.4-0.3,3.1-1c0.7-0.7,1.1-1.7,1.1-3c0-1.2-0.3-2.1-0.9-2.8
	c-0.6-0.7-1.5-1.1-2.8-1.1h-5V62.7L64.3,62.7z M74,62.7h3.3v-4.9h1.2c1.4,0,2.4-0.3,3.1-1c0.7-0.7,1.1-1.7,1.1-3
	c0-1.2-0.3-2.1-0.9-2.8c-0.6-0.7-1.5-1.1-2.8-1.1h-5V62.7L74,62.7z M85.5,62.7h3.3v-10h2.5v-2.8H83v2.8h2.5V62.7L85.5,62.7z
	 M110.8,42.3v31.5h31.5v83.7H58.6V42.3H110.8L110.8,42.3z M64.3,89.4v62.4h72.3V89.4H64.3L64.3,89.4z M67.7,52.2h0.6
	c0.4,0,0.7,0.1,1,0.4c0.2,0.3,0.3,0.7,0.3,1.2c0,0.5-0.1,0.9-0.3,1.2c-0.2,0.3-0.5,0.4-1,0.4h-0.6V52.2L67.7,52.2z M77.3,52.2H78
	c0.4,0,0.7,0.1,1,0.4c0.2,0.3,0.3,0.7,0.3,1.2c0,0.5-0.1,0.9-0.3,1.2c-0.2,0.3-0.5,0.4-1,0.4h-0.6V52.2L77.3,52.2z M101.8,121.9
	h20.4c0,11.2-9.1,20.4-20.4,20.4V121.9L101.8,121.9z M78.8,119.2c0-11.2,9.1-20.4,20.4-20.4c11.2,0,20.4,9.1,20.4,20.4H99.1v20.4
	C87.9,139.6,78.8,130.5,78.8,119.2L78.8,119.2z M114.5,42.3l27.8,27.8h-27.8V42.3L114.5,42.3z"/>
</svg>
