<?xml version="1.0" encoding="utf-8"?>
<!-- Generator: Adobe Illustrator 21.0.2, SVG Export Plug-In . SVG Version: 6.00 Build 0)  -->
<svg version="1.1" id="Layer_1" xmlns="http://www.w3.org/2000/svg" xmlns:xlink="http://www.w3.org/1999/xlink" x="0px" y="0px"
	 viewBox="0 0 200 200" style="enable-background:new 0 0 200 200;" xml:space="preserve">
<style type="text/css">
	.st0{fill:#AC162C;}
</style>
<path class="st0" d="M64.3,62.7h3.3v-5.1h0.9c0.4,0,0.7,0.1,0.9,0.4c0.2,0.3,0.3,0.8,0.2,1.5v0.9c0,0.3,0,0.7,0,1.2
	c0,0.5,0.1,0.9,0.3,1.3h3.6v-0.2c-0.1-0.1-0.2-0.1-0.2-0.2c-0.1-0.1-0.1-0.1-0.1-0.2c-0.1-0.1-0.1-0.4-0.1-0.7c0-0.3,0-0.7,0-1v-1.1
	c0-0.9-0.1-1.5-0.4-2c-0.3-0.5-0.9-0.8-1.7-0.9c0.8-0.1,1.3-0.4,1.7-1c0.4-0.5,0.5-1.2,0.5-2.1c0-1-0.3-1.8-0.8-2.5
	c-0.6-0.6-1.5-0.9-2.7-1h-5.2V62.7L64.3,62.7z M73.6,62.7h3.6l0.3-2.3h2.7l0.3,2.3h3.6l-3.1-12.8h-4.2L73.6,62.7L73.6,62.7z
	 M84.6,62.7H88v-5.1h0.9c0.4,0,0.7,0.1,0.9,0.4c0.2,0.3,0.3,0.8,0.2,1.5v0.9c0,0.3,0,0.7,0,1.2c0,0.5,0.1,0.9,0.3,1.3h3.6v-0.2
	c-0.1-0.1-0.2-0.1-0.2-0.2c-0.1-0.1-0.1-0.1-0.1-0.2c-0.1-0.1-0.1-0.4-0.1-0.7c0-0.3,0-0.7,0-1v-1.1c0-0.9-0.1-1.5-0.4-2
	c-0.3-0.5-0.9-0.8-1.7-0.9c0.8-0.2,1.3-0.5,1.7-1c0.4-0.5,0.5-1.2,0.5-2.1c0-1-0.3-1.8-0.8-2.5c-0.5-0.6-1.5-0.9-2.7-1h-5.2V62.7
	L84.6,62.7z M110.8,42.3v31.5h31.5v83.7H58.6V42.3H110.8L110.8,42.3z M64.3,89.4v62.4h72.3V89.4H64.3L64.3,89.4z M67.6,52.2h0.6
	c0.5,0,0.9,0.1,1.1,0.4c0.2,0.2,0.3,0.6,0.3,1.1c0,0.5-0.1,0.8-0.3,1.1c-0.2,0.3-0.6,0.4-1.1,0.4h-0.7V52.2L67.6,52.2z M79.8,57.9
	h-1.9l1-5.5L79.8,57.9L79.8,57.9z M88,52.2h0.6c0.5,0,0.9,0.1,1.1,0.4c0.2,0.2,0.3,0.6,0.3,1.1c0,0.5-0.1,0.8-0.3,1.1
	c-0.2,0.3-0.6,0.4-1.1,0.4H88V52.2L88,52.2z M82.5,120.2h35.9l0,0.4l0,0.4H82.5v1h36c0.1,0.3,0.1,0.6,0.3,0.8H82.7
	c0.3,0.8,1,1.3,1.9,1.3h35.9v2.2H84.6c-2.3,0-4.3-1.9-4.3-4.3v-3c0-2.3,1.9-4.3,4.3-4.3h35.9v2.2H84.6c-0.9,0-1.6,0.5-1.9,1.3h36.2
	c-0.1,0.3-0.2,0.5-0.3,0.8h-36v0.3v0.6V120.2L82.5,120.2z M82.5,106.8h35.9l0,0.4l0,0.4H82.5v1h36c0.1,0.3,0.1,0.6,0.3,0.8H82.7
	c0.3,0.8,1,1.3,1.9,1.3h35.9v2.2H84.6c-2.3,0-4.3-1.9-4.3-4.3v-3c0-2.4,1.9-4.3,4.3-4.3h35.9v2.2H84.6c-0.9,0-1.6,0.5-1.9,1.3h36.2
	c-0.1,0.3-0.2,0.5-0.3,0.8h-36v0.3v0.6V106.8L82.5,106.8z M82.5,133.5h35.9l0,0.4l0,0.4H82.5v1h36c0.1,0.3,0.1,0.6,0.3,0.8H82.7
	c0.3,0.8,1,1.3,1.9,1.3h35.9v2.2H84.6c-2.3,0-4.3-1.9-4.3-4.3v-3c0-2.4,1.9-4.3,4.3-4.3h35.9v2.2H84.6c-0.9,0-1.6,0.5-1.9,1.3h36.2
	c-0.1,0.3-0.2,0.5-0.3,0.8h-36v0.3v0.6V133.5L82.5,133.5z M114.4,42.3l27.8,27.8h-27.8V42.3L114.4,42.3z"/>
</svg>
