<?xml version="1.0" encoding="utf-8"?>
<!-- Generator: Adobe Illustrator 21.0.2, SVG Export Plug-In . SVG Version: 6.00 Build 0)  -->
<svg version="1.1" id="Layer_1" xmlns="http://www.w3.org/2000/svg" xmlns:xlink="http://www.w3.org/1999/xlink" x="0px" y="0px"
	 viewBox="0 0 200 200" style="enable-background:new 0 0 200 200;" xml:space="preserve">
<style type="text/css">
	.st0{fill:#3FAE2A;}
</style>
<path class="st0" d="M66.7,56l-3,6.5h3.7l1.3-3.9l1.3,3.9h3.7l-3-6.5l2.8-6.3h-3.7l-1.1,3.7l-1.1-3.7h-3.7L66.7,56L66.7,56z
	 M74.3,62.5h7.5v-2.7h-4.1V49.6h-3.3V62.5L74.3,62.5z M90.8,53.3c0-1.4-0.3-2.4-1-3c-0.7-0.6-1.7-1-3.2-0.9c-1.4,0-2.5,0.4-3.2,1
	c-0.7,0.7-1,1.7-1,3c0,1.1,0.3,1.9,0.8,2.5c0.5,0.5,1.1,0.9,1.8,1.2c0.7,0.3,1.3,0.5,1.8,0.8c0.5,0.3,0.8,0.7,0.8,1.3
	c0,0.4-0.1,0.7-0.3,0.9c-0.2,0.2-0.5,0.3-0.8,0.4c-0.3,0-0.6-0.1-0.8-0.3c-0.2-0.2-0.3-0.6-0.3-1.2v-0.3h-3.2v0.5
	c0,1.3,0.4,2.3,1.1,2.8c0.7,0.6,1.8,0.8,3.2,0.8c1.5,0,2.6-0.3,3.4-1c0.8-0.6,1.2-1.6,1.2-3c0-1.1-0.3-2-0.9-2.6
	c-0.5-0.6-1.2-1-1.9-1.2c-0.7-0.3-1.3-0.6-1.9-0.8c-0.5-0.3-0.8-0.7-0.9-1.3c0-0.3,0.1-0.6,0.3-0.8c0.2-0.2,0.4-0.3,0.8-0.4
	c0.3,0,0.6,0.1,0.7,0.4c0.2,0.3,0.2,0.6,0.2,1v0.3H90.8L90.8,53.3z M110.2,42.1v31.5h31.5v83.7H58V42.1H110.2L110.2,42.1z
	 M63.7,89.2v62.4H136V89.2L63.7,89.2L63.7,89.2z M120.5,102v36.8h-7.2V102H120.5L120.5,102z M109.1,109.9v28.9H102v-28.9H109.1
	L109.1,109.9z M97.7,115.4v23.4h-7.2v-23.4H97.7L97.7,115.4z M86.3,122.2v16.6h-7.2v-16.6H86.3L86.3,122.2z M113.8,42.1l27.8,27.8
	h-27.8V42.1L113.8,42.1z"/>
</svg>
